<mxfile host="app.diagrams.net" modified="2024-07-14T12:49:48.082Z" agent="Mozilla/5.0 (Windows NT 10.0; Win64; x64) AppleWebKit/537.36 (KHTML, like Gecko) Chrome/126.0.0.0 Safari/537.36 Edg/126.0.0.0" etag="aBO9R3c1_LmbG5xz6eS_" version="24.6.5" type="device">
  <diagram name="Page-1" id="IToxhbYYrQyp0qWMO941">
    <mxGraphModel dx="1687" dy="602" grid="0" gridSize="10" guides="1" tooltips="1" connect="1" arrows="1" fold="1" page="0" pageScale="1" pageWidth="850" pageHeight="1100" background="#ffffff" math="0" shadow="0">
      <root>
        <mxCell id="0" />
        <mxCell id="1" parent="0" />
        <mxCell id="N_Gyu3E-fC6QbnTVGaKH-7" value="" style="edgeStyle=none;curved=1;rounded=0;orthogonalLoop=1;jettySize=auto;html=1;fontSize=12;startSize=8;endSize=8;" edge="1" parent="1" source="N_Gyu3E-fC6QbnTVGaKH-1" target="N_Gyu3E-fC6QbnTVGaKH-5">
          <mxGeometry relative="1" as="geometry" />
        </mxCell>
        <mxCell id="N_Gyu3E-fC6QbnTVGaKH-1" value="" style="sketch=0;pointerEvents=1;shadow=0;dashed=0;html=1;strokeColor=none;fillColor=#505050;labelPosition=center;verticalLabelPosition=bottom;verticalAlign=top;outlineConnect=0;align=center;shape=mxgraph.office.concepts.document;" vertex="1" parent="1">
          <mxGeometry x="414" y="188" width="40" height="47" as="geometry" />
        </mxCell>
        <mxCell id="N_Gyu3E-fC6QbnTVGaKH-15" value="" style="edgeStyle=none;curved=1;rounded=0;orthogonalLoop=1;jettySize=auto;html=1;fontSize=12;startSize=8;endSize=8;" edge="1" parent="1" source="N_Gyu3E-fC6QbnTVGaKH-2" target="N_Gyu3E-fC6QbnTVGaKH-4">
          <mxGeometry relative="1" as="geometry" />
        </mxCell>
        <mxCell id="N_Gyu3E-fC6QbnTVGaKH-25" value="" style="edgeStyle=none;curved=1;rounded=0;orthogonalLoop=1;jettySize=auto;html=1;fontSize=12;startSize=8;endSize=8;" edge="1" parent="1" source="N_Gyu3E-fC6QbnTVGaKH-2" target="N_Gyu3E-fC6QbnTVGaKH-20">
          <mxGeometry relative="1" as="geometry" />
        </mxCell>
        <mxCell id="N_Gyu3E-fC6QbnTVGaKH-2" value="Query" style="rounded=1;whiteSpace=wrap;html=1;fillColor=#dae8fc;strokeColor=#6c8ebf;" vertex="1" parent="1">
          <mxGeometry x="-316" y="275" width="115" height="40" as="geometry" />
        </mxCell>
        <mxCell id="N_Gyu3E-fC6QbnTVGaKH-17" value="" style="edgeStyle=none;curved=1;rounded=0;orthogonalLoop=1;jettySize=auto;html=1;fontSize=12;startSize=8;endSize=8;" edge="1" parent="1" source="N_Gyu3E-fC6QbnTVGaKH-3">
          <mxGeometry relative="1" as="geometry">
            <mxPoint x="24" y="417" as="targetPoint" />
            <Array as="points">
              <mxPoint x="185" y="423" />
            </Array>
          </mxGeometry>
        </mxCell>
        <mxCell id="N_Gyu3E-fC6QbnTVGaKH-3" value="Pinecone Vector DB" style="rounded=1;whiteSpace=wrap;html=1;fillColor=#f8cecc;strokeColor=#b85450;" vertex="1" parent="1">
          <mxGeometry x="95" y="271" width="115" height="41" as="geometry" />
        </mxCell>
        <mxCell id="N_Gyu3E-fC6QbnTVGaKH-16" value="" style="edgeStyle=none;curved=1;rounded=0;orthogonalLoop=1;jettySize=auto;html=1;fontSize=12;startSize=8;endSize=8;" edge="1" parent="1" source="N_Gyu3E-fC6QbnTVGaKH-4" target="N_Gyu3E-fC6QbnTVGaKH-3">
          <mxGeometry relative="1" as="geometry" />
        </mxCell>
        <mxCell id="N_Gyu3E-fC6QbnTVGaKH-4" value="Embedding Model&lt;div&gt;(Sentence Transformer)&lt;/div&gt;" style="rounded=1;whiteSpace=wrap;html=1;fillColor=#ffe6cc;strokeColor=#d79b00;" vertex="1" parent="1">
          <mxGeometry x="-96" y="268" width="115" height="51" as="geometry" />
        </mxCell>
        <mxCell id="N_Gyu3E-fC6QbnTVGaKH-8" value="" style="edgeStyle=none;curved=1;rounded=0;orthogonalLoop=1;jettySize=auto;html=1;fontSize=12;startSize=8;endSize=8;" edge="1" parent="1" source="N_Gyu3E-fC6QbnTVGaKH-5" target="N_Gyu3E-fC6QbnTVGaKH-6">
          <mxGeometry relative="1" as="geometry" />
        </mxCell>
        <mxCell id="N_Gyu3E-fC6QbnTVGaKH-5" value="Chunking" style="shape=process;whiteSpace=wrap;html=1;backgroundOutline=1;" vertex="1" parent="1">
          <mxGeometry x="376" y="320" width="120" height="60" as="geometry" />
        </mxCell>
        <mxCell id="N_Gyu3E-fC6QbnTVGaKH-41" value="" style="edgeStyle=none;curved=1;rounded=0;orthogonalLoop=1;jettySize=auto;html=1;fontSize=12;startSize=8;endSize=8;" edge="1" parent="1" source="N_Gyu3E-fC6QbnTVGaKH-6">
          <mxGeometry relative="1" as="geometry">
            <mxPoint x="170" y="314" as="targetPoint" />
          </mxGeometry>
        </mxCell>
        <mxCell id="N_Gyu3E-fC6QbnTVGaKH-6" value="Embeddings" style="sketch=0;outlineConnect=0;fontColor=#232F3E;gradientColor=none;fillColor=#ED7100;strokeColor=none;dashed=0;verticalLabelPosition=bottom;verticalAlign=top;align=center;html=1;fontSize=12;fontStyle=0;aspect=fixed;pointerEvents=1;shape=mxgraph.aws4.braket_embedded_simulator;" vertex="1" parent="1">
          <mxGeometry x="397" y="474" width="78" height="78" as="geometry" />
        </mxCell>
        <mxCell id="N_Gyu3E-fC6QbnTVGaKH-9" value="&lt;font style=&quot;font-size: 12px;&quot;&gt;PDF Document&lt;/font&gt;" style="text;html=1;align=center;verticalAlign=middle;resizable=0;points=[];autosize=1;strokeColor=none;fillColor=none;fontSize=16;" vertex="1" parent="1">
          <mxGeometry x="386" y="161" width="100" height="31" as="geometry" />
        </mxCell>
        <mxCell id="N_Gyu3E-fC6QbnTVGaKH-27" value="" style="edgeStyle=none;curved=1;rounded=0;orthogonalLoop=1;jettySize=auto;html=1;fontSize=12;startSize=8;endSize=8;" edge="1" parent="1" source="N_Gyu3E-fC6QbnTVGaKH-13" target="N_Gyu3E-fC6QbnTVGaKH-20">
          <mxGeometry relative="1" as="geometry" />
        </mxCell>
        <mxCell id="N_Gyu3E-fC6QbnTVGaKH-13" value="Retrieved Context" style="rounded=1;whiteSpace=wrap;html=1;fillColor=#e1d5e7;strokeColor=#9673a6;" vertex="1" parent="1">
          <mxGeometry x="-90" y="396" width="115" height="41" as="geometry" />
        </mxCell>
        <mxCell id="N_Gyu3E-fC6QbnTVGaKH-26" value="" style="edgeStyle=none;curved=1;rounded=0;orthogonalLoop=1;jettySize=auto;html=1;fontSize=12;startSize=8;endSize=8;" edge="1" parent="1" source="N_Gyu3E-fC6QbnTVGaKH-20" target="N_Gyu3E-fC6QbnTVGaKH-22">
          <mxGeometry relative="1" as="geometry" />
        </mxCell>
        <mxCell id="N_Gyu3E-fC6QbnTVGaKH-20" value="LLM (Tiny Llama)" style="rounded=1;whiteSpace=wrap;html=1;fillColor=#d5e8d4;strokeColor=#82b366;" vertex="1" parent="1">
          <mxGeometry x="-315" y="397" width="115" height="40" as="geometry" />
        </mxCell>
        <mxCell id="N_Gyu3E-fC6QbnTVGaKH-22" value="Response" style="rounded=1;whiteSpace=wrap;html=1;fillColor=#dae8fc;strokeColor=#6c8ebf;" vertex="1" parent="1">
          <mxGeometry x="-316" y="522" width="115" height="40" as="geometry" />
        </mxCell>
        <mxCell id="N_Gyu3E-fC6QbnTVGaKH-24" value="&lt;b&gt;1&lt;/b&gt;" style="ellipse;whiteSpace=wrap;html=1;aspect=fixed;fillColor=#b1ddf0;strokeColor=#10739e;" vertex="1" parent="1">
          <mxGeometry x="-173" y="243" width="38" height="38" as="geometry" />
        </mxCell>
        <mxCell id="N_Gyu3E-fC6QbnTVGaKH-30" value="&lt;b&gt;2&lt;/b&gt;" style="ellipse;whiteSpace=wrap;html=1;aspect=fixed;fillColor=#b1ddf0;strokeColor=#10739e;" vertex="1" parent="1">
          <mxGeometry x="42" y="236" width="38" height="38" as="geometry" />
        </mxCell>
        <mxCell id="N_Gyu3E-fC6QbnTVGaKH-31" value="&lt;b&gt;4&lt;/b&gt;" style="ellipse;whiteSpace=wrap;html=1;aspect=fixed;fillColor=#b1ddf0;strokeColor=#10739e;" vertex="1" parent="1">
          <mxGeometry x="-163" y="369" width="38" height="38" as="geometry" />
        </mxCell>
        <mxCell id="N_Gyu3E-fC6QbnTVGaKH-32" value="&lt;b&gt;5&lt;/b&gt;" style="ellipse;whiteSpace=wrap;html=1;aspect=fixed;fillColor=#b1ddf0;strokeColor=#10739e;" vertex="1" parent="1">
          <mxGeometry x="-243" y="457" width="38" height="38" as="geometry" />
        </mxCell>
        <mxCell id="N_Gyu3E-fC6QbnTVGaKH-33" value="&lt;b&gt;3&lt;/b&gt;" style="ellipse;whiteSpace=wrap;html=1;aspect=fixed;fillColor=#b1ddf0;strokeColor=#10739e;" vertex="1" parent="1">
          <mxGeometry x="83" y="359" width="38" height="38" as="geometry" />
        </mxCell>
        <mxCell id="N_Gyu3E-fC6QbnTVGaKH-35" value="&lt;b&gt;2&lt;/b&gt;" style="ellipse;whiteSpace=wrap;html=1;aspect=fixed;fillColor=#bac8d3;strokeColor=#23445d;" vertex="1" parent="1">
          <mxGeometry x="446" y="407" width="38" height="38" as="geometry" />
        </mxCell>
        <mxCell id="N_Gyu3E-fC6QbnTVGaKH-36" value="&lt;b&gt;3&lt;/b&gt;&lt;span style=&quot;color: rgba(0, 0, 0, 0); font-family: monospace; font-size: 0px; text-align: start; text-wrap: nowrap;&quot;&gt;%3CmxGraphModel%3E%3Croot%3E%3CmxCell%20id%3D%220%22%2F%3E%3CmxCell%20id%3D%221%22%20parent%3D%220%22%2F%3E%3CmxCell%20id%3D%222%22%20value%3D%22%26lt%3Bb%26gt%3B2%26lt%3B%2Fb%26gt%3B%22%20style%3D%22ellipse%3BwhiteSpace%3Dwrap%3Bhtml%3D1%3Baspect%3Dfixed%3B%22%20vertex%3D%221%22%20parent%3D%221%22%3E%3CmxGeometry%20x%3D%22446%22%20y%3D%22407%22%20width%3D%2238%22%20height%3D%2238%22%20as%3D%22geometry%22%2F%3E%3C%2FmxCell%3E%3C%2Froot%3E%3C%2FmxGraphModel%3E&lt;/span&gt;" style="ellipse;whiteSpace=wrap;html=1;aspect=fixed;fillColor=#bac8d3;strokeColor=#23445d;" vertex="1" parent="1">
          <mxGeometry x="288" y="362" width="38" height="38" as="geometry" />
        </mxCell>
        <mxCell id="N_Gyu3E-fC6QbnTVGaKH-37" value="&lt;b&gt;1&lt;/b&gt;" style="ellipse;whiteSpace=wrap;html=1;aspect=fixed;fillColor=#bac8d3;strokeColor=#23445d;" vertex="1" parent="1">
          <mxGeometry x="454" y="249" width="38" height="38" as="geometry" />
        </mxCell>
        <mxCell id="N_Gyu3E-fC6QbnTVGaKH-38" value="" style="endArrow=none;dashed=1;html=1;rounded=0;fontSize=12;startSize=8;endSize=8;curved=1;" edge="1" parent="1">
          <mxGeometry width="50" height="50" relative="1" as="geometry">
            <mxPoint x="153" y="710.6257898667279" as="sourcePoint" />
            <mxPoint x="150" y="28" as="targetPoint" />
          </mxGeometry>
        </mxCell>
        <mxCell id="N_Gyu3E-fC6QbnTVGaKH-39" value="RETRIEVAL" style="text;html=1;align=center;verticalAlign=middle;resizable=0;points=[];autosize=1;strokeColor=none;fillColor=none;fontSize=16;" vertex="1" parent="1">
          <mxGeometry x="-175.5" y="107.5" width="106" height="31" as="geometry" />
        </mxCell>
        <mxCell id="N_Gyu3E-fC6QbnTVGaKH-40" value="INGESTION" style="text;html=1;align=center;verticalAlign=middle;resizable=0;points=[];autosize=1;strokeColor=none;fillColor=none;fontSize=16;" vertex="1" parent="1">
          <mxGeometry x="410" y="107.5" width="106" height="31" as="geometry" />
        </mxCell>
      </root>
    </mxGraphModel>
  </diagram>
</mxfile>
